<svg width="30" height="30" viewBox="0 0 30 30" fill="none" xmlns="http://www.w3.org/2000/svg">
<g clip-path="url(#clip0_23_1642)">
<path d="M4.07058 9.78224H3.99373C3.00859 9.78224 2.20535 10.588 2.20535 11.5706V19.3569C2.20535 20.3434 3.00859 21.1465 3.99373 21.1465H4.07189C5.05703 21.1465 5.86026 20.3408 5.86026 19.3569V11.5706C5.85896 10.588 5.05448 9.78224 4.07058 9.78224Z" fill="#010002"/>
<path d="M6.716 22.3623C6.716 23.2667 7.45516 24.0033 8.35959 24.0033H10.116V28.2091C10.116 29.1968 10.9217 30 11.9043 30H11.9812C12.9676 30 13.7721 29.1955 13.7721 28.2091V24.0033H16.2267V28.2091C16.2267 29.1968 17.035 30 18.0176 30H18.0932C19.0796 30 19.8828 29.1955 19.8828 28.2091V24.0033H21.6404C22.5436 24.0033 23.2828 23.2667 23.2828 22.3623V10.0679H6.716V22.3623Z" fill="#010002"/>
<path d="M19.1257 2.6121L20.5208 0.45866C20.6104 0.322838 20.5707 0.137129 20.4336 0.0486988C20.2979 -0.0409784 20.1121 -0.003801 20.0237 0.135822L18.5774 2.36362C17.4924 1.91909 16.2805 1.6693 15.0006 1.6693C13.7196 1.6693 12.5102 1.91909 11.4226 2.36362L9.97889 0.135822C9.89052 -0.003801 9.70344 -0.0409784 9.56637 0.0486988C9.4293 0.137069 9.38957 0.322838 9.47925 0.45866L10.8756 2.6121C8.35828 3.84579 6.66089 6.17092 6.66089 8.83808C6.66089 9.00205 6.67116 9.16347 6.68524 9.32358H23.3173C23.3314 9.16347 23.3403 9.00205 23.3403 8.83808C23.3404 6.17092 21.6417 3.84579 19.1257 2.6121ZM11.1446 6.4681C10.7027 6.4681 10.344 6.11195 10.344 5.66873C10.344 5.22551 10.7027 4.8706 11.1446 4.8706C11.5892 4.8706 11.9453 5.22545 11.9453 5.66873C11.9453 6.11201 11.5866 6.4681 11.1446 6.4681ZM18.8554 6.4681C18.4134 6.4681 18.0547 6.11195 18.0547 5.66873C18.0547 5.22551 18.4134 4.8706 18.8554 4.8706C19.2986 4.8706 19.6548 5.22545 19.6548 5.66873C19.6548 6.11195 19.2986 6.4681 18.8554 6.4681Z" fill="#010002"/>
<path d="M26.005 9.78224H25.9307C24.9455 9.78224 24.1397 10.588 24.1397 11.5706V19.3569C24.1397 20.3434 24.9468 21.1465 25.9307 21.1465H26.0063C26.9927 21.1465 27.7947 20.3408 27.7947 19.3569V11.5706C27.7947 10.588 26.9901 9.78224 26.005 9.78224Z" fill="#010002"/>
</g>
<defs>
<clipPath id="clip0_23_1642">
<rect width="30" height="30" fill="white"/>
</clipPath>
</defs>
</svg>
